{
    "asset": {
        "version": "2.0",
        "generator": "Open Asset Import Library (assimp v5.4.0)"
    },
    "extensionsUsed": [
        "KHR_materials_specular",
        "KHR_materials_volume",
        "FB_ngon_encoding"
    ],
    "accessors": [
        {
            "bufferView": 0,
            "byteOffset": 0,
            "componentType": 5126,
            "count": 50002,
            "type": "VEC3",
            "max": [
                1155.7767333984375,
                145.30484008789063,
                991.0083618164063
            ],
            "min": [
                225.94947814941406,
                -388.3721923828125,
                -605.892822265625
            ]
        },
        {
            "bufferView": 1,
            "byteOffset": 0,
            "componentType": 5126,
            "count": 50002,
            "type": "VEC3",
            "max": [
                0.9999953508377075,
                0.9999831318855286,
                0.9982994198799133
            ],
            "min": [
                -0.9999661445617676,
                -0.9999861717224121,
                -0.9999995231628418
            ]
        },
        {
            "bufferView": 2,
            "byteOffset": 0,
            "componentType": 5125,
            "count": 300000,
            "type": "SCALAR",
            "max": [
                50001
            ],
            "min": [
                0
            ]
        }
    ],
    "buffers": [
        {
            "byteLength": 2400048,
            "uri": "Lucy100k.bin"
        }
    ],
    "bufferViews": [
        {
            "buffer": 0,
            "byteOffset": 0,
            "byteLength": 600024,
            "target": 34962
        },
        {
            "buffer": 0,
            "byteOffset": 600024,
            "byteLength": 600024,
            "target": 34962
        },
        {
            "buffer": 0,
            "byteOffset": 1200048,
            "byteLength": 1200000,
            "target": 34963
        }
    ],
    "materials": [
        {
            "name": "material",
            "pbrMetallicRoughness": {
                "metallicFactor": 0.0
            },
            "doubleSided": true,
            "extensions": {
                "KHR_materials_specular": {
                    "specularFactor": 1.0
                }
            }
        }
    ],
    "meshes": [
        {
            "primitives": [
                {
                    "mode": 4,
                    "material": 0,
                    "indices": 2,
                    "attributes": {
                        "POSITION": 0,
                        "NORMAL": 1
                    }
                }
            ]
        }
    ],
    "nodes": [
        {
            "mesh": 0
        }
    ],
    "scenes": [
        {
            "nodes": [
                0
            ]
        }
    ],
    "scene": 0
}